<?xml version="1.0" encoding="utf-8"?>
<!-- Generator: Adobe Illustrator 14.0.0, SVG Export Plug-In . SVG Version: 6.00 Build 43363)  -->
<!DOCTYPE svg PUBLIC "-//W3C//DTD SVG 1.1//EN" "http://www.w3.org/Graphics/SVG/1.1/DTD/svg11.dtd">
<svg version="1.1" xmlns="http://www.w3.org/2000/svg" xmlns:xlink="http://www.w3.org/1999/xlink" x="0px" y="0px" width="1200px"
	 height="1200px" viewBox="0 0 1200 1200" enable-background="new 0 0 1200 1200" xml:space="preserve">
<g id="guide">
</g>
<g id="art">
	<g>
		<path fill-rule="evenodd" clip-rule="evenodd" fill="#D1DED7" d="M762.563,683.499c-0.54,0-0.955-0.416-0.955-0.956
			c-0.083-4.528-0.997-12.401-3.138-14.146c-2.513-2.057-6.564-2.66-9.327-2.722c-0.54,0-0.955-0.416-0.955-0.956
			c0-0.52,0.415-0.935,0.955-0.955c2.742-0.042,6.751-0.623,9.266-2.639c2.139-1.745,3.095-9.659,3.199-14.229
			c0-0.52,0.436-0.936,0.955-0.936l0,0c0.54,0,0.955,0.416,0.977,0.936c0.082,4.57,1.018,12.484,3.198,14.229
			c2.515,2.016,6.503,2.597,9.244,2.659c0.52,0,0.935,0.415,0.935,0.935c0,0.54-0.415,0.956-0.935,0.956
			c-2.741,0.062-6.771,0.665-9.284,2.68c-2.141,1.744-3.096,9.639-3.18,14.188C763.519,683.083,763.083,683.499,762.563,683.499
			L762.563,683.499z"/>
		<path fill-rule="evenodd" clip-rule="evenodd" fill="#8A7862" d="M808.182,641.744c-1.06,0-1.932-0.852-1.953-1.91
			c-0.146-9.245-2.015-25.239-6.377-28.792c-5.131-4.155-13.337-5.381-18.966-5.506c-1.081-0.02-1.932-0.893-1.932-1.952
			c0-1.059,0.872-1.953,1.932-1.953c5.608-0.104,13.731-1.246,18.82-5.379c4.404-3.552,6.336-19.61,6.544-28.917
			c0.021-1.039,0.893-1.912,1.932-1.912l0,0c1.08,0,1.932,0.873,1.974,1.912c0.187,9.307,2.099,25.364,6.502,28.917
			c5.109,4.134,13.212,5.276,18.82,5.379c1.06,0.021,1.933,0.895,1.933,1.953c0,1.08-0.873,1.952-1.933,1.952
			c-5.608,0.125-13.772,1.31-18.862,5.443c-4.403,3.573-6.314,19.59-6.502,28.854C810.113,640.913,809.241,641.744,808.182,641.744
			L808.182,641.744z"/>
		<path fill-rule="evenodd" clip-rule="evenodd" fill="#BCE1EA" d="M758.679,577.264c-0.914,0-1.642-0.727-1.662-1.62
			c-0.104-7.831-1.703-21.355-5.4-24.367c-4.342-3.553-11.28-4.57-16.038-4.675c-0.934-0.02-1.641-0.748-1.641-1.662
			c0-0.914,0.728-1.641,1.641-1.641c4.736-0.104,11.613-1.059,15.934-4.57c3.719-3.012,5.381-16.598,5.525-24.471
			c0.021-0.914,0.748-1.621,1.642-1.621l0,0c0.914,0,1.662,0.707,1.683,1.621c0.146,7.874,1.787,21.459,5.506,24.471
			c4.3,3.511,11.196,4.466,15.933,4.57c0.913,0,1.641,0.748,1.641,1.641c0,0.915-0.728,1.662-1.641,1.684
			c-4.736,0.083-11.654,1.08-15.975,4.59c-3.719,3.012-5.339,16.599-5.484,24.43C760.319,576.558,759.593,577.264,758.679,577.264
			L758.679,577.264z"/>
		<path fill-rule="evenodd" clip-rule="evenodd" fill="#D1DED7" d="M849.188,555.203c-0.623,0-1.121-0.498-1.143-1.121
			c-0.062-5.36-1.143-14.604-3.676-16.661c-2.992-2.41-7.729-3.116-10.989-3.178c-0.623-0.021-1.102-0.52-1.102-1.144
			c0-0.623,0.498-1.121,1.102-1.121c3.261-0.063,7.955-0.728,10.906-3.116c2.555-2.057,3.676-11.384,3.78-16.744
			c0-0.643,0.52-1.121,1.121-1.121l0,0c0.624,0,1.122,0.478,1.164,1.121c0.083,5.381,1.204,14.687,3.739,16.744
			c2.949,2.389,7.665,3.075,10.927,3.116c0.603,0,1.101,0.52,1.101,1.121c0,0.624-0.498,1.144-1.101,1.144
			c-3.262,0.062-7.978,0.748-10.947,3.136c-2.535,2.077-3.657,11.342-3.761,16.723C850.31,554.725,849.812,555.203,849.188,555.203
			L849.188,555.203z"/>
		<path fill-rule="evenodd" clip-rule="evenodd" fill="#8A7862" d="M436.859,689.835c0.52,0,0.956-0.437,0.966-0.956
			c0.052-4.549,0.987-12.401,3.126-14.146c2.515-2.057,6.565-2.659,9.328-2.721c0.53,0,0.956-0.437,0.956-0.956
			s-0.437-0.956-0.956-0.956c-2.752-0.041-6.751-0.602-9.265-2.658c-2.161-1.745-3.116-9.64-3.199-14.209
			c-0.021-0.52-0.436-0.935-0.956-0.935l0,0c-0.54,0-0.956,0.415-0.976,0.935c-0.083,4.569-1.039,12.464-3.199,14.209
			c-2.513,2.057-6.502,2.617-9.255,2.658c-0.529,0-0.935,0.437-0.935,0.956s0.405,0.956,0.935,0.956
			c2.753,0.062,6.772,0.644,9.275,2.68c2.162,1.765,3.106,9.639,3.199,14.188C435.903,689.42,436.329,689.835,436.859,689.835
			L436.859,689.835z"/>
		<path fill-rule="evenodd" clip-rule="evenodd" fill="#BCE1EA" d="M391.22,648.081c1.081,0,1.952-0.853,1.974-1.912
			c0.145-9.244,2.005-25.239,6.377-28.791c5.131-4.155,13.327-5.381,18.956-5.484c1.081-0.042,1.932-0.894,1.932-1.974
			c0-1.081-0.861-1.952-1.932-1.952c-5.598-0.104-13.72-1.247-18.831-5.381c-4.383-3.552-6.325-19.63-6.523-28.917
			c-0.02-1.059-0.893-1.912-1.952-1.912l0,0c-1.069,0-1.932,0.853-1.952,1.912c-0.188,9.306-2.12,25.364-6.523,28.917
			c-5.09,4.134-13.212,5.276-18.811,5.381c-1.06,0.021-1.922,0.871-1.922,1.952c0,1.08,0.862,1.974,1.922,1.974
			c5.599,0.104,13.772,1.287,18.873,5.422c4.383,3.573,6.294,19.589,6.481,28.854C389.298,647.25,390.171,648.081,391.22,648.081
			L391.22,648.081z"/>
		<path fill-rule="evenodd" clip-rule="evenodd" fill="#8A7862" d="M440.723,583.6c0.914,0,1.641-0.726,1.662-1.62
			c0.125-7.831,1.703-21.375,5.401-24.387c4.341-3.532,11.301-4.55,16.058-4.653c0.914-0.021,1.631-0.748,1.631-1.662
			c0-0.915-0.727-1.642-1.631-1.642c-4.736-0.103-11.613-1.08-15.933-4.57c-3.739-3.011-5.38-16.619-5.547-24.471
			c0-0.893-0.748-1.62-1.641-1.62l0,0c-0.914,0-1.641,0.727-1.672,1.62c-0.135,7.874-1.775,21.46-5.504,24.471
			c-4.311,3.511-11.187,4.467-15.944,4.57c-0.893,0-1.63,0.748-1.63,1.642c0,0.914,0.738,1.662,1.63,1.682
			c4.758,0.083,11.675,1.081,15.996,4.591c3.718,3.011,5.338,16.598,5.484,24.429C439.102,582.894,439.83,583.6,440.723,583.6
			L440.723,583.6z"/>
		<path fill-rule="evenodd" clip-rule="evenodd" fill="#D1DED7" d="M350.214,561.539c0.643,0,1.131-0.499,1.153-1.122
			c0.072-5.359,1.152-14.604,3.687-16.66c2.971-2.41,7.717-3.116,10.979-3.178c0.623-0.021,1.111-0.54,1.111-1.143
			c0-0.623-0.498-1.142-1.111-1.142c-3.251-0.042-7.946-0.707-10.906-3.096c-2.545-2.057-3.666-11.384-3.781-16.764
			c-0.01-0.602-0.508-1.101-1.131-1.101l0,0c-0.603,0-1.122,0.5-1.144,1.101c-0.082,5.401-1.205,14.708-3.749,16.764
			c-2.96,2.389-7.655,3.054-10.917,3.096c-0.602,0.02-1.101,0.54-1.101,1.142c0,0.623,0.499,1.143,1.101,1.143
			c3.262,0.062,7.977,0.748,10.948,3.136c2.535,2.078,3.656,11.343,3.739,16.702C349.112,561.062,349.611,561.539,350.214,561.539
			L350.214,561.539z"/>
		<path fill-rule="evenodd" clip-rule="evenodd" fill="#5C4136" d="M479.984,674.296c-0.01,3.47-0.01,12.402-0.01,15.975
			c0,2.099,0.955,2.805,2.607,3.574c8.434,3.842,84.142,21.292,87.829,45.681c1.921,12.899-7.042,46.864-12.028,57.873
			c-11.405,25.386-9.483,47.343,14.084,72.729c6.315,6.813,13.741,10.677,21.303,10.719c7.572-0.042,14.977-3.906,21.283-10.719
			c23.577-25.364,25.509-47.343,14.084-72.729c-4.965-11.009-13.939-44.974-12.027-57.873c3.697-24.389,79.437-41.858,87.829-45.681
			c1.662-0.77,2.617-1.476,2.617-3.574c0-3.572,0-12.483,0-15.975H593.77H479.984z M610.752,832.88
			c0,9.368-7.603,16.972-16.982,16.972c-9.389,0-16.982-7.604-16.982-16.972c0-9.369,7.593-16.972,16.982-16.972
			C603.139,815.908,610.731,823.511,610.752,832.88z"/>
		<polygon fill-rule="evenodd" clip-rule="evenodd" fill="#8A7862" points="482.02,627.618 482.041,663.848 705.499,663.848 
			705.478,627.618 		"/>
		<path fill-rule="evenodd" clip-rule="evenodd" fill="#7ABFC4" d="M769.378,488.375L593.739,319.904L418.143,488.375h63.877
			l0.021,99.982c0,36.229,19.547-18.322,32.416-18.301c11.924,0,19.434,30.018,28.21,30.018
			c25.209-0.021,22.383-69.217,45.337-69.217c14.292,0,16.474,77.298,31.108,78.398c20.929,1.537,28.117-108.208,43.884-108.208
			c15.787,0,14.479,50.791,14.479,75.823c0,29.353,28.023,21.521,28.023-2.39l-0.021-86.105H769.378z M589.895,498.098H570.12
			v-19.755h19.775V498.098z M589.895,470.573H570.12v-19.756h19.775V470.573z M617.421,498.098h-19.777v-19.755h19.777V498.098z
			 M617.421,470.573h-19.777v-19.756h19.777V470.573z"/>
	</g>
</g>
</svg>
