<?xml version="1.0" encoding="UTF-8" standalone="no"?>
<!-- Generator: Adobe Illustrator 14.0.0, SVG Export Plug-In . SVG Version: 6.00 Build 43363)  -->

<svg
   xmlns:dc="http://purl.org/dc/elements/1.1/"
   xmlns:cc="http://creativecommons.org/ns#"
   xmlns:rdf="http://www.w3.org/1999/02/22-rdf-syntax-ns#"
   xmlns:svg="http://www.w3.org/2000/svg"
   xmlns="http://www.w3.org/2000/svg"
   xmlns:sodipodi="http://sodipodi.sourceforge.net/DTD/sodipodi-0.dtd"
   xmlns:inkscape="http://www.inkscape.org/namespaces/inkscape"
   version="1.1"
   x="0px"
   y="0px"
   width="1200px"
   height="1200px"
   viewBox="0 0 1200 1200"
   enable-background="new 0 0 1200 1200"
   xml:space="preserve"
   id="svg28"
   sodipodi:docname="VECTORIAL_IMAGOLOGO_2_blanco.svg"
   inkscape:version="0.92.3 (2405546, 2018-03-11)"><metadata
     id="metadata34"><rdf:RDF><cc:Work
         rdf:about=""><dc:format>image/svg+xml</dc:format><dc:type
           rdf:resource="http://purl.org/dc/dcmitype/StillImage" /><dc:title></dc:title></cc:Work></rdf:RDF></metadata><defs
     id="defs32" /><sodipodi:namedview
     pagecolor="#ffffff"
     bordercolor="#666666"
     borderopacity="1"
     objecttolerance="10"
     gridtolerance="10"
     guidetolerance="10"
     inkscape:pageopacity="0"
     inkscape:pageshadow="2"
     inkscape:window-width="1360"
     inkscape:window-height="705"
     id="namedview30"
     showgrid="false"
     inkscape:zoom="0.33589188"
     inkscape:cx="220.11764"
     inkscape:cy="501.786"
     inkscape:window-x="-8"
     inkscape:window-y="-8"
     inkscape:window-maximized="1"
     inkscape:current-layer="svg28" /><g
     id="guide" /><g
     id="g4557"
     transform="matrix(2.3087932,0,0,2.3087932,-599.18771,1058.4895)"
     style="fill:#ffffff"><path
       style="clip-rule:evenodd;fill:#ffffff;fill-rule:evenodd;stroke-width:0.94764727"
       inkscape:connector-curvature="0"
       id="path3-4"
       d="m 670.37601,-80.409161 c -0.50818,0 -0.89873,-0.396961 -0.89873,-0.912265 -0.078,-4.320862 -0.93827,-11.8337 -2.95313,-13.498871 -2.36495,-1.962905 -6.17729,-2.538315 -8.77752,-2.597474 -0.50818,0 -0.89873,-0.39698 -0.89873,-0.912266 0,-0.496222 0.39055,-0.892237 0.89873,-0.911321 2.58046,-0.04009 6.35328,-0.594504 8.72011,-2.518272 2.01298,-1.66518 2.91267,-9.21715 3.01054,-13.57808 0,-0.49622 0.41031,-0.89318 0.89873,-0.89318 v 0 c 0.50819,0 0.89874,0.39696 0.91945,0.89318 0.0771,4.36093 0.95802,11.9129 3.00959,13.57808 2.36683,1.923768 6.11988,2.478197 8.6994,2.537356 0.48937,0 0.87992,0.396015 0.87992,0.892237 0,0.515286 -0.39055,0.912266 -0.87992,0.912266 -2.57952,0.05916 -6.37209,0.634569 -8.73704,2.557398 -2.01488,1.664209 -2.91361,9.198048 -2.99266,13.538947 9.4e-4,0.515304 -0.40938,0.912265 -0.89874,0.912265 z" /><path
       style="clip-rule:evenodd;fill:#ffffff;fill-rule:evenodd;stroke-width:0.94764727"
       inkscape:connector-curvature="0"
       id="path5-1"
       d="m 713.30744,-120.25403 c -0.99757,0 -1.81818,-0.81302 -1.83796,-1.82262 -0.13739,-8.82208 -1.89628,-24.08442 -6.0013,-27.47487 -4.82872,-3.96493 -12.55127,-5.13485 -17.84865,-5.25413 -1.0173,-0.0191 -1.81818,-0.85215 -1.81818,-1.86271 0,-1.01054 0.82064,-1.86366 1.81818,-1.86366 5.27762,-0.0993 12.92207,-1.18899 17.71126,-5.13292 4.14455,-3.38951 5.96272,-18.71293 6.15847,-27.59416 0.0198,-0.99147 0.84038,-1.82455 1.81818,-1.82455 v 0 c 1.01637,0 1.81817,0.83308 1.8577,1.82455 0.17598,8.88123 1.97534,24.20369 6.11894,27.59416 4.80801,3.94488 12.43363,5.03464 17.71125,5.13292 0.99755,0.0199 1.81912,0.85406 1.81912,1.86366 0,1.03061 -0.82157,1.86271 -1.81912,1.86271 -5.27762,0.11928 -12.96064,1.25006 -17.75077,5.194 -4.14361,3.40954 -5.94202,18.69383 -6.11895,27.53404 -9.4e-4,1.0306 -0.82157,1.82358 -1.81817,1.82358 z" /><path
       style="clip-rule:evenodd;fill:#ffffff;fill-rule:evenodd;stroke-width:0.94764727"
       inkscape:connector-curvature="0"
       id="path7-9"
       d="m 666.72084,-181.78432 c -0.86016,0 -1.54527,-0.69374 -1.5641,-1.54589 -0.0979,-7.47275 -1.60266,-20.37809 -5.08186,-23.2523 -4.08619,-3.39046 -10.61545,-4.36094 -15.09315,-4.46114 -0.87896,-0.0191 -1.54431,-0.71379 -1.54431,-1.58597 0,-0.87218 0.6851,-1.56592 1.54431,-1.56592 4.457,-0.0993 10.92885,-1.01056 14.99527,-4.36095 3.4999,-2.8742 5.06399,-15.8387 5.19951,-23.35154 0.0198,-0.87219 0.70394,-1.54685 1.54526,-1.54685 v 0 c 0.86015,0 1.56409,0.67466 1.58385,1.54685 0.13741,7.51379 1.68172,20.47734 5.18162,23.35154 4.04668,3.35039 10.5364,4.26169 14.99433,4.36095 0.85921,0 1.54433,0.71378 1.54433,1.56592 0,0.87315 -0.68512,1.58597 -1.54433,1.60696 -4.45697,0.0791 -10.96742,1.0306 -15.03385,4.38003 -3.4999,2.87422 -5.02446,15.83967 -5.16092,23.31242 -0.0226,0.87219 -0.70581,1.54589 -1.56596,1.54589 z" /><path
       style="clip-rule:evenodd;fill:#ffffff;fill-rule:evenodd;stroke-width:0.94764727"
       inkscape:connector-curvature="0"
       id="path9-9"
       d="m 751.89762,-202.8361 c -0.5863,0 -1.05496,-0.47522 -1.07566,-1.06973 -0.0584,-5.11479 -1.07566,-13.93592 -3.45943,-15.89883 -2.81574,-2.29975 -7.27366,-2.97345 -10.3416,-3.03261 -0.5863,-0.02 -1.03708,-0.49622 -1.03708,-1.09166 0,-0.59451 0.46866,-1.06972 1.03708,-1.06972 3.06889,-0.0601 7.48634,-0.6947 10.26348,-2.97346 2.40448,-1.96289 3.45944,-10.86323 3.55731,-15.97803 0,-0.61358 0.48937,-1.06971 1.05496,-1.06971 v 0 c 0.58724,0 1.0559,0.45613 1.09542,1.06971 0.078,5.13485 1.13307,14.01514 3.51872,15.97803 2.77527,2.27971 7.21343,2.93433 10.28326,2.97346 0.56747,0 1.03613,0.4962 1.03613,1.06972 0,0.59544 -0.46866,1.09166 -1.03613,1.09166 -3.06983,0.0591 -7.50799,0.71378 -10.30208,2.99254 -2.38565,1.98198 -3.44155,10.82314 -3.53942,15.95799 9.4e-4,0.5945 -0.46772,1.05064 -1.05496,1.05064 z" /><path
       style="clip-rule:evenodd;fill:#ffffff;fill-rule:evenodd;stroke-width:0.94764727"
       inkscape:connector-curvature="0"
       id="path11-5"
       d="m 363.86042,-74.363005 c 0.48937,0 0.89967,-0.417004 0.90909,-0.912265 0.0489,-4.340902 0.92885,-11.8337 2.94183,-13.498872 2.36684,-1.962905 6.17823,-2.537371 8.77845,-2.59653 0.49878,0 0.89968,-0.417006 0.89968,-0.912265 0,-0.495259 -0.41125,-0.912264 -0.89968,-0.912264 -2.58986,-0.03921 -6.35326,-0.574466 -8.71916,-2.536417 -2.03369,-1.665162 -2.93243,-9.199002 -3.01054,-13.558982 -0.0197,-0.49622 -0.4103,-0.89223 -0.89967,-0.89223 v 0 c -0.50819,0 -0.89969,0.39601 -0.91851,0.89223 -0.078,4.35998 -0.97779,11.89382 -3.01053,13.558982 -2.36495,1.962904 -6.11894,2.497285 -8.70975,2.536417 -0.49783,0 -0.87992,0.417005 -0.87992,0.912264 0,0.495259 0.38114,0.912265 0.87992,0.912265 2.59081,0.05916 6.37303,0.614541 8.72857,2.557408 2.03463,1.684246 2.92302,9.19805 3.01053,13.538952 0,0.515293 0.4009,0.911307 0.89969,0.911307 z" /><path
       style="clip-rule:evenodd;fill:#ffffff;fill-rule:evenodd;stroke-width:0.94764727"
       inkscape:connector-curvature="0"
       id="path13-5"
       d="m 320.91017,-114.20692 c 1.01733,0 1.837,-0.81398 1.85772,-1.82453 0.13645,-8.82113 1.88687,-24.08442 6.0013,-27.47393 4.82872,-3.96492 12.54185,-5.13483 17.83923,-5.23312 1.01731,-0.0401 1.81818,-0.85311 1.81818,-1.88371 0,-1.03154 -0.81028,-1.8627 -1.81818,-1.8627 -5.2682,-0.0993 -12.9117,-1.18995 -17.7216,-5.13483 -4.12478,-3.38952 -5.95236,-18.73201 -6.13871,-27.59415 -0.0188,-1.01056 -0.84038,-1.82455 -1.837,-1.82455 v 0 c -1.00602,0 -1.81817,0.81399 -1.83699,1.82455 -0.17693,8.88027 -1.99511,24.20368 -6.13871,27.59415 -4.79014,3.94488 -12.43363,5.03463 -17.70277,5.13483 -0.99756,0.02 -1.80878,0.83116 -1.80878,1.8627 0,1.0306 0.81122,1.88371 1.80878,1.88371 5.26914,0.0993 12.96064,1.22812 17.76112,5.17396 4.12478,3.40955 5.92319,18.69288 6.09918,27.53403 0.008,1.03061 0.83004,1.82359 1.81723,1.82359 z" /><path
       style="clip-rule:evenodd;fill:#ffffff;fill-rule:evenodd;stroke-width:0.94764727"
       inkscape:connector-curvature="0"
       id="path15-4"
       d="m 367.49677,-175.73816 c 0.86016,0 1.54433,-0.6928 1.56409,-1.54589 0.11763,-7.47276 1.60267,-20.39717 5.08281,-23.27139 4.08525,-3.37042 10.63521,-4.34186 15.11197,-4.44015 0.86014,-0.02 1.53491,-0.71378 1.53491,-1.58596 0,-0.87316 -0.68418,-1.56689 -1.53491,-1.56689 -4.45699,-0.0983 -10.92885,-1.03059 -14.99434,-4.36094 -3.51871,-2.87325 -5.06304,-15.85874 -5.2202,-23.35154 0,-0.85216 -0.70393,-1.54589 -1.54433,-1.54589 v 0 c -0.86014,0 -1.54432,0.69373 -1.57349,1.54589 -0.12704,7.5138 -1.67042,20.47829 -5.17974,23.35154 -4.05703,3.35038 -10.52794,4.26265 -15.00469,4.36094 -0.84038,0 -1.53396,0.71378 -1.53396,1.56689 0,0.87218 0.69451,1.58596 1.53396,1.60505 4.4777,0.0791 10.98719,1.03155 15.05362,4.38097 3.49896,2.87327 5.02352,15.83872 5.16092,23.31148 0.0179,0.87218 0.70299,1.54589 1.54338,1.54589 z" /><path
       style="clip-rule:evenodd;fill:#ffffff;fill-rule:evenodd;stroke-width:0.94764727"
       inkscape:connector-curvature="0"
       id="path17-6"
       d="m 282.31999,-196.78996 c 0.60511,0 1.06437,-0.47616 1.08507,-1.07067 0.0678,-5.11385 1.08412,-13.93592 3.46978,-15.89787 2.79597,-2.29975 7.26237,-2.97345 10.3322,-3.03262 0.58629,-0.0199 1.04554,-0.5153 1.04554,-1.09072 0,-0.59449 -0.46866,-1.08975 -1.04554,-1.08975 -3.05949,-0.0401 -7.47788,-0.67466 -10.2635,-2.95436 -2.39507,-1.96291 -3.45002,-10.86323 -3.55824,-15.99711 -0.01,-0.57447 -0.47807,-1.05063 -1.06438,-1.05063 v 0 c -0.56747,0 -1.0559,0.47711 -1.07659,1.05063 -0.0772,5.15391 -1.13401,14.03515 -3.52813,15.99711 -2.78562,2.2797 -7.20402,2.91429 -10.27385,2.95436 -0.56654,0.0191 -1.03613,0.5153 -1.03613,1.08975 0,0.59451 0.46959,1.09072 1.03613,1.09072 3.06983,0.0592 7.50706,0.71379 10.30302,2.99255 2.38565,1.98294 3.44061,10.82409 3.51872,15.93794 0.0188,0.6155 0.48842,1.07067 1.0559,1.07067 z" /><path
       style="clip-rule:evenodd;fill:#ffffff;fill-rule:evenodd;stroke-width:0.63540828"
       inkscape:connector-curvature="0"
       id="path19-4"
       d="m 437.5203,-106.00454 c -0.006,2.22024 -0.006,7.935289 -0.006,10.221429 0,1.343007 0.6026,1.794738 1.64504,2.286769 5.32193,2.458263 53.09436,13.623437 55.4209,29.228448 1.21216,8.253271 -4.44357,29.985373 -7.58977,37.029353 -7.19667,16.242922 -5.98386,30.2918472 8.88713,46.534779 3.98481,4.359218 8.6707,6.831549 13.44238,6.858419 4.77801,-0.02686 9.45062,-2.499201 13.42976,-6.858419 14.87731,-16.2288528 16.09643,-30.291857 8.88715,-46.534779 -3.13296,-7.04398 -8.79565,-28.776082 -7.58916,-37.029353 2.33285,-15.605011 50.12548,-26.782348 55.42091,-29.228448 1.04873,-0.492669 1.65135,-0.944401 1.65135,-2.286769 0,-2.285521 0,-7.987119 0,-10.221429 h -71.79968 z m 82.51581,101.4680829 c 0,5.9940123 -4.79756,10.8593413 -10.7158,10.8593413 -5.92454,0 -10.7158,-4.865329 -10.7158,-10.8593413 0,-5.9946399 4.79126,-10.8593299 10.7158,-10.8593299 5.91192,0 10.70255,4.86469 10.7158,10.8593299 z" /><polygon
       transform="matrix(0.80508861,0,0,0.39854232,35.176806,-382.64659)"
       style="clip-rule:evenodd;fill:#ffffff;fill-rule:evenodd"
       id="polygon21-3"
       points="705.478,627.618 482.02,627.618 482.041,663.848 705.499,663.848 " /><path
       style="clip-rule:evenodd;fill:#ffffff;fill-rule:evenodd;stroke-width:0.94764727"
       inkscape:connector-curvature="0"
       id="path23-6"
       d="M 676.78951,-266.60699 511.49805,-427.37108 346.24704,-266.60699 h 60.11378 l 0.0197,95.40822 c 0,34.57165 18.39543,-17.48385 30.50626,-17.46381 11.22152,0 18.28907,28.6448 26.54805,28.6448 23.72384,-0.0201 21.06434,-66.05059 42.66603,-66.05059 13.45001,0 15.50345,73.76191 29.27531,74.81159 19.69599,1.46669 26.46052,-103.2579 41.29863,-103.2579 14.85694,0 13.626,48.46751 13.626,72.3544 0,28.0102 26.37206,20.53648 26.37206,-2.28067 l -0.0198,-82.16604 z m -168.90899,9.27822 h -18.60999 v -18.85129 h 18.60999 z m 0,-26.26585 h -18.60999 v -18.85224 h 18.60999 z m 25.90433,26.26585 h -18.61186 v -18.85129 h 18.61186 z m 0,-26.26585 h -18.61186 v -18.85224 h 18.61186 z" /></g></svg>